<?xml version="1.0" encoding="utf-8" standalone="no"?>
<!DOCTYPE svg PUBLIC "-//W3C//DTD SVG 1.1//EN"
  "http://www.w3.org/Graphics/SVG/1.1/DTD/svg11.dtd">
<!-- Created with matplotlib (https://matplotlib.org/) -->
<svg height="209.21175pt" version="1.1" viewBox="0 0 315.167188 209.21175" width="315.167188pt" xmlns="http://www.w3.org/2000/svg" xmlns:xlink="http://www.w3.org/1999/xlink">
 <metadata>
  <rdf:RDF xmlns:cc="http://creativecommons.org/ns#" xmlns:dc="http://purl.org/dc/elements/1.1/" xmlns:rdf="http://www.w3.org/1999/02/22-rdf-syntax-ns#">
   <cc:Work>
    <dc:type rdf:resource="http://purl.org/dc/dcmitype/StillImage"/>
    <dc:date>2021-06-21T06:48:22.127720</dc:date>
    <dc:format>image/svg+xml</dc:format>
    <dc:creator>
     <cc:Agent>
      <dc:title>Matplotlib v3.3.3, https://matplotlib.org/</dc:title>
     </cc:Agent>
    </dc:creator>
   </cc:Work>
  </rdf:RDF>
 </metadata>
 <defs>
  <style type="text/css">*{stroke-linecap:butt;stroke-linejoin:round;}</style>
 </defs>
 <g id="figure_1">
  <g id="patch_1">
   <path d="M 0 209.21175 
L 315.167188 209.21175 
L 315.167188 -0 
L 0 -0 
z
" style="fill:none;"/>
  </g>
  <g id="axes_1">
   <g id="patch_2">
    <path d="M 56.867188 171.6555 
L 307.967188 171.6555 
L 307.967188 35.7555 
L 56.867188 35.7555 
z
" style="fill:#ffffff;"/>
   </g>
   <g id="matplotlib.axis_1">
    <g id="xtick_1">
     <g id="line2d_1">
      <path clip-path="url(#pb6cc520b56)" d="M 157.468327 171.6555 
L 157.468327 35.7555 
" style="fill:none;stroke:#b0b0b0;stroke-linecap:square;stroke-width:0.8;"/>
     </g>
     <g id="line2d_2">
      <defs>
       <path d="M 0 0 
L 0 3.5 
" id="mce33c0536f" style="stroke:#000000;stroke-width:0.8;"/>
      </defs>
      <g>
       <use style="stroke:#000000;stroke-width:0.8;" x="157.468327" xlink:href="#mce33c0536f" y="171.6555"/>
      </g>
     </g>
     <g id="text_1">
      <!-- $\mathdefault{10^{-4}}$ -->
      <g transform="translate(145.718327 186.253937)scale(0.1 -0.1)">
       <defs>
        <path d="M 12.40625 8.296875 
L 28.515625 8.296875 
L 28.515625 63.921875 
L 10.984375 60.40625 
L 10.984375 69.390625 
L 28.421875 72.90625 
L 38.28125 72.90625 
L 38.28125 8.296875 
L 54.390625 8.296875 
L 54.390625 0 
L 12.40625 0 
z
" id="DejaVuSans-49"/>
        <path d="M 31.78125 66.40625 
Q 24.171875 66.40625 20.328125 58.90625 
Q 16.5 51.421875 16.5 36.375 
Q 16.5 21.390625 20.328125 13.890625 
Q 24.171875 6.390625 31.78125 6.390625 
Q 39.453125 6.390625 43.28125 13.890625 
Q 47.125 21.390625 47.125 36.375 
Q 47.125 51.421875 43.28125 58.90625 
Q 39.453125 66.40625 31.78125 66.40625 
z
M 31.78125 74.21875 
Q 44.046875 74.21875 50.515625 64.515625 
Q 56.984375 54.828125 56.984375 36.375 
Q 56.984375 17.96875 50.515625 8.265625 
Q 44.046875 -1.421875 31.78125 -1.421875 
Q 19.53125 -1.421875 13.0625 8.265625 
Q 6.59375 17.96875 6.59375 36.375 
Q 6.59375 54.828125 13.0625 64.515625 
Q 19.53125 74.21875 31.78125 74.21875 
z
" id="DejaVuSans-48"/>
        <path d="M 10.59375 35.5 
L 73.1875 35.5 
L 73.1875 27.203125 
L 10.59375 27.203125 
z
" id="DejaVuSans-8722"/>
        <path d="M 37.796875 64.3125 
L 12.890625 25.390625 
L 37.796875 25.390625 
z
M 35.203125 72.90625 
L 47.609375 72.90625 
L 47.609375 25.390625 
L 58.015625 25.390625 
L 58.015625 17.1875 
L 47.609375 17.1875 
L 47.609375 0 
L 37.796875 0 
L 37.796875 17.1875 
L 4.890625 17.1875 
L 4.890625 26.703125 
z
" id="DejaVuSans-52"/>
       </defs>
       <use transform="translate(0 0.684375)" xlink:href="#DejaVuSans-49"/>
       <use transform="translate(63.623047 0.684375)" xlink:href="#DejaVuSans-48"/>
       <use transform="translate(128.203125 38.965625)scale(0.7)" xlink:href="#DejaVuSans-8722"/>
       <use transform="translate(186.855469 38.965625)scale(0.7)" xlink:href="#DejaVuSans-52"/>
      </g>
     </g>
    </g>
    <g id="xtick_2">
     <g id="line2d_3">
      <path clip-path="url(#pb6cc520b56)" d="M 264.160786 171.6555 
L 264.160786 35.7555 
" style="fill:none;stroke:#b0b0b0;stroke-linecap:square;stroke-width:0.8;"/>
     </g>
     <g id="line2d_4">
      <g>
       <use style="stroke:#000000;stroke-width:0.8;" x="264.160786" xlink:href="#mce33c0536f" y="171.6555"/>
      </g>
     </g>
     <g id="text_2">
      <!-- $\mathdefault{10^{-3}}$ -->
      <g transform="translate(252.410786 186.253937)scale(0.1 -0.1)">
       <defs>
        <path d="M 40.578125 39.3125 
Q 47.65625 37.796875 51.625 33 
Q 55.609375 28.21875 55.609375 21.1875 
Q 55.609375 10.40625 48.1875 4.484375 
Q 40.765625 -1.421875 27.09375 -1.421875 
Q 22.515625 -1.421875 17.65625 -0.515625 
Q 12.796875 0.390625 7.625 2.203125 
L 7.625 11.71875 
Q 11.71875 9.328125 16.59375 8.109375 
Q 21.484375 6.890625 26.8125 6.890625 
Q 36.078125 6.890625 40.9375 10.546875 
Q 45.796875 14.203125 45.796875 21.1875 
Q 45.796875 27.640625 41.28125 31.265625 
Q 36.765625 34.90625 28.71875 34.90625 
L 20.21875 34.90625 
L 20.21875 43.015625 
L 29.109375 43.015625 
Q 36.375 43.015625 40.234375 45.921875 
Q 44.09375 48.828125 44.09375 54.296875 
Q 44.09375 59.90625 40.109375 62.90625 
Q 36.140625 65.921875 28.71875 65.921875 
Q 24.65625 65.921875 20.015625 65.03125 
Q 15.375 64.15625 9.8125 62.3125 
L 9.8125 71.09375 
Q 15.4375 72.65625 20.34375 73.4375 
Q 25.25 74.21875 29.59375 74.21875 
Q 40.828125 74.21875 47.359375 69.109375 
Q 53.90625 64.015625 53.90625 55.328125 
Q 53.90625 49.265625 50.4375 45.09375 
Q 46.96875 40.921875 40.578125 39.3125 
z
" id="DejaVuSans-51"/>
       </defs>
       <use transform="translate(0 0.765625)" xlink:href="#DejaVuSans-49"/>
       <use transform="translate(63.623047 0.765625)" xlink:href="#DejaVuSans-48"/>
       <use transform="translate(128.203125 39.046875)scale(0.7)" xlink:href="#DejaVuSans-8722"/>
       <use transform="translate(186.855469 39.046875)scale(0.7)" xlink:href="#DejaVuSans-51"/>
      </g>
     </g>
    </g>
    <g id="xtick_3">
     <g id="line2d_5">
      <defs>
       <path d="M 0 0 
L 0 2 
" id="medde2473d8" style="stroke:#000000;stroke-width:0.6;"/>
      </defs>
      <g>
       <use style="stroke:#000000;stroke-width:0.6;" x="82.893499" xlink:href="#medde2473d8" y="171.6555"/>
      </g>
     </g>
    </g>
    <g id="xtick_4">
     <g id="line2d_6">
      <g>
       <use style="stroke:#000000;stroke-width:0.6;" x="101.681108" xlink:href="#medde2473d8" y="171.6555"/>
      </g>
     </g>
    </g>
    <g id="xtick_5">
     <g id="line2d_7">
      <g>
       <use style="stroke:#000000;stroke-width:0.6;" x="115.011129" xlink:href="#medde2473d8" y="171.6555"/>
      </g>
     </g>
    </g>
    <g id="xtick_6">
     <g id="line2d_8">
      <g>
       <use style="stroke:#000000;stroke-width:0.6;" x="125.350697" xlink:href="#medde2473d8" y="171.6555"/>
      </g>
     </g>
    </g>
    <g id="xtick_7">
     <g id="line2d_9">
      <g>
       <use style="stroke:#000000;stroke-width:0.6;" x="133.798739" xlink:href="#medde2473d8" y="171.6555"/>
      </g>
     </g>
    </g>
    <g id="xtick_8">
     <g id="line2d_10">
      <g>
       <use style="stroke:#000000;stroke-width:0.6;" x="140.941456" xlink:href="#medde2473d8" y="171.6555"/>
      </g>
     </g>
    </g>
    <g id="xtick_9">
     <g id="line2d_11">
      <g>
       <use style="stroke:#000000;stroke-width:0.6;" x="147.12876" xlink:href="#medde2473d8" y="171.6555"/>
      </g>
     </g>
    </g>
    <g id="xtick_10">
     <g id="line2d_12">
      <g>
       <use style="stroke:#000000;stroke-width:0.6;" x="152.586348" xlink:href="#medde2473d8" y="171.6555"/>
      </g>
     </g>
    </g>
    <g id="xtick_11">
     <g id="line2d_13">
      <g>
       <use style="stroke:#000000;stroke-width:0.6;" x="189.585957" xlink:href="#medde2473d8" y="171.6555"/>
      </g>
     </g>
    </g>
    <g id="xtick_12">
     <g id="line2d_14">
      <g>
       <use style="stroke:#000000;stroke-width:0.6;" x="208.373567" xlink:href="#medde2473d8" y="171.6555"/>
      </g>
     </g>
    </g>
    <g id="xtick_13">
     <g id="line2d_15">
      <g>
       <use style="stroke:#000000;stroke-width:0.6;" x="221.703588" xlink:href="#medde2473d8" y="171.6555"/>
      </g>
     </g>
    </g>
    <g id="xtick_14">
     <g id="line2d_16">
      <g>
       <use style="stroke:#000000;stroke-width:0.6;" x="232.043155" xlink:href="#medde2473d8" y="171.6555"/>
      </g>
     </g>
    </g>
    <g id="xtick_15">
     <g id="line2d_17">
      <g>
       <use style="stroke:#000000;stroke-width:0.6;" x="240.491197" xlink:href="#medde2473d8" y="171.6555"/>
      </g>
     </g>
    </g>
    <g id="xtick_16">
     <g id="line2d_18">
      <g>
       <use style="stroke:#000000;stroke-width:0.6;" x="247.633915" xlink:href="#medde2473d8" y="171.6555"/>
      </g>
     </g>
    </g>
    <g id="xtick_17">
     <g id="line2d_19">
      <g>
       <use style="stroke:#000000;stroke-width:0.6;" x="253.821218" xlink:href="#medde2473d8" y="171.6555"/>
      </g>
     </g>
    </g>
    <g id="xtick_18">
     <g id="line2d_20">
      <g>
       <use style="stroke:#000000;stroke-width:0.6;" x="259.278807" xlink:href="#medde2473d8" y="171.6555"/>
      </g>
     </g>
    </g>
    <g id="xtick_19">
     <g id="line2d_21">
      <g>
       <use style="stroke:#000000;stroke-width:0.6;" x="296.278416" xlink:href="#medde2473d8" y="171.6555"/>
      </g>
     </g>
    </g>
    <g id="text_3">
     <!-- Frequency (Hz) -->
     <g transform="translate(144.7125 199.932062)scale(0.1 -0.1)">
      <defs>
       <path d="M 9.8125 72.90625 
L 51.703125 72.90625 
L 51.703125 64.59375 
L 19.671875 64.59375 
L 19.671875 43.109375 
L 48.578125 43.109375 
L 48.578125 34.8125 
L 19.671875 34.8125 
L 19.671875 0 
L 9.8125 0 
z
" id="DejaVuSans-70"/>
       <path d="M 41.109375 46.296875 
Q 39.59375 47.171875 37.8125 47.578125 
Q 36.03125 48 33.890625 48 
Q 26.265625 48 22.1875 43.046875 
Q 18.109375 38.09375 18.109375 28.8125 
L 18.109375 0 
L 9.078125 0 
L 9.078125 54.6875 
L 18.109375 54.6875 
L 18.109375 46.1875 
Q 20.953125 51.171875 25.484375 53.578125 
Q 30.03125 56 36.53125 56 
Q 37.453125 56 38.578125 55.875 
Q 39.703125 55.765625 41.0625 55.515625 
z
" id="DejaVuSans-114"/>
       <path d="M 56.203125 29.59375 
L 56.203125 25.203125 
L 14.890625 25.203125 
Q 15.484375 15.921875 20.484375 11.0625 
Q 25.484375 6.203125 34.421875 6.203125 
Q 39.59375 6.203125 44.453125 7.46875 
Q 49.3125 8.734375 54.109375 11.28125 
L 54.109375 2.78125 
Q 49.265625 0.734375 44.1875 -0.34375 
Q 39.109375 -1.421875 33.890625 -1.421875 
Q 20.796875 -1.421875 13.15625 6.1875 
Q 5.515625 13.8125 5.515625 26.8125 
Q 5.515625 40.234375 12.765625 48.109375 
Q 20.015625 56 32.328125 56 
Q 43.359375 56 49.78125 48.890625 
Q 56.203125 41.796875 56.203125 29.59375 
z
M 47.21875 32.234375 
Q 47.125 39.59375 43.09375 43.984375 
Q 39.0625 48.390625 32.421875 48.390625 
Q 24.90625 48.390625 20.390625 44.140625 
Q 15.875 39.890625 15.1875 32.171875 
z
" id="DejaVuSans-101"/>
       <path d="M 14.796875 27.296875 
Q 14.796875 17.390625 18.875 11.75 
Q 22.953125 6.109375 30.078125 6.109375 
Q 37.203125 6.109375 41.296875 11.75 
Q 45.40625 17.390625 45.40625 27.296875 
Q 45.40625 37.203125 41.296875 42.84375 
Q 37.203125 48.484375 30.078125 48.484375 
Q 22.953125 48.484375 18.875 42.84375 
Q 14.796875 37.203125 14.796875 27.296875 
z
M 45.40625 8.203125 
Q 42.578125 3.328125 38.25 0.953125 
Q 33.9375 -1.421875 27.875 -1.421875 
Q 17.96875 -1.421875 11.734375 6.484375 
Q 5.515625 14.40625 5.515625 27.296875 
Q 5.515625 40.1875 11.734375 48.09375 
Q 17.96875 56 27.875 56 
Q 33.9375 56 38.25 53.625 
Q 42.578125 51.265625 45.40625 46.390625 
L 45.40625 54.6875 
L 54.390625 54.6875 
L 54.390625 -20.796875 
L 45.40625 -20.796875 
z
" id="DejaVuSans-113"/>
       <path d="M 8.5 21.578125 
L 8.5 54.6875 
L 17.484375 54.6875 
L 17.484375 21.921875 
Q 17.484375 14.15625 20.5 10.265625 
Q 23.53125 6.390625 29.59375 6.390625 
Q 36.859375 6.390625 41.078125 11.03125 
Q 45.3125 15.671875 45.3125 23.6875 
L 45.3125 54.6875 
L 54.296875 54.6875 
L 54.296875 0 
L 45.3125 0 
L 45.3125 8.40625 
Q 42.046875 3.421875 37.71875 1 
Q 33.40625 -1.421875 27.6875 -1.421875 
Q 18.265625 -1.421875 13.375 4.4375 
Q 8.5 10.296875 8.5 21.578125 
z
M 31.109375 56 
z
" id="DejaVuSans-117"/>
       <path d="M 54.890625 33.015625 
L 54.890625 0 
L 45.90625 0 
L 45.90625 32.71875 
Q 45.90625 40.484375 42.875 44.328125 
Q 39.84375 48.1875 33.796875 48.1875 
Q 26.515625 48.1875 22.3125 43.546875 
Q 18.109375 38.921875 18.109375 30.90625 
L 18.109375 0 
L 9.078125 0 
L 9.078125 54.6875 
L 18.109375 54.6875 
L 18.109375 46.1875 
Q 21.34375 51.125 25.703125 53.5625 
Q 30.078125 56 35.796875 56 
Q 45.21875 56 50.046875 50.171875 
Q 54.890625 44.34375 54.890625 33.015625 
z
" id="DejaVuSans-110"/>
       <path d="M 48.78125 52.59375 
L 48.78125 44.1875 
Q 44.96875 46.296875 41.140625 47.34375 
Q 37.3125 48.390625 33.40625 48.390625 
Q 24.65625 48.390625 19.8125 42.84375 
Q 14.984375 37.3125 14.984375 27.296875 
Q 14.984375 17.28125 19.8125 11.734375 
Q 24.65625 6.203125 33.40625 6.203125 
Q 37.3125 6.203125 41.140625 7.25 
Q 44.96875 8.296875 48.78125 10.40625 
L 48.78125 2.09375 
Q 45.015625 0.34375 40.984375 -0.53125 
Q 36.96875 -1.421875 32.421875 -1.421875 
Q 20.0625 -1.421875 12.78125 6.34375 
Q 5.515625 14.109375 5.515625 27.296875 
Q 5.515625 40.671875 12.859375 48.328125 
Q 20.21875 56 33.015625 56 
Q 37.15625 56 41.109375 55.140625 
Q 45.0625 54.296875 48.78125 52.59375 
z
" id="DejaVuSans-99"/>
       <path d="M 32.171875 -5.078125 
Q 28.375 -14.84375 24.75 -17.8125 
Q 21.140625 -20.796875 15.09375 -20.796875 
L 7.90625 -20.796875 
L 7.90625 -13.28125 
L 13.1875 -13.28125 
Q 16.890625 -13.28125 18.9375 -11.515625 
Q 21 -9.765625 23.484375 -3.21875 
L 25.09375 0.875 
L 2.984375 54.6875 
L 12.5 54.6875 
L 29.59375 11.921875 
L 46.6875 54.6875 
L 56.203125 54.6875 
z
" id="DejaVuSans-121"/>
       <path id="DejaVuSans-32"/>
       <path d="M 31 75.875 
Q 24.46875 64.65625 21.28125 53.65625 
Q 18.109375 42.671875 18.109375 31.390625 
Q 18.109375 20.125 21.3125 9.0625 
Q 24.515625 -2 31 -13.1875 
L 23.1875 -13.1875 
Q 15.875 -1.703125 12.234375 9.375 
Q 8.59375 20.453125 8.59375 31.390625 
Q 8.59375 42.28125 12.203125 53.3125 
Q 15.828125 64.359375 23.1875 75.875 
z
" id="DejaVuSans-40"/>
       <path d="M 9.8125 72.90625 
L 19.671875 72.90625 
L 19.671875 43.015625 
L 55.515625 43.015625 
L 55.515625 72.90625 
L 65.375 72.90625 
L 65.375 0 
L 55.515625 0 
L 55.515625 34.71875 
L 19.671875 34.71875 
L 19.671875 0 
L 9.8125 0 
z
" id="DejaVuSans-72"/>
       <path d="M 5.515625 54.6875 
L 48.1875 54.6875 
L 48.1875 46.484375 
L 14.40625 7.171875 
L 48.1875 7.171875 
L 48.1875 0 
L 4.296875 0 
L 4.296875 8.203125 
L 38.09375 47.515625 
L 5.515625 47.515625 
z
" id="DejaVuSans-122"/>
       <path d="M 8.015625 75.875 
L 15.828125 75.875 
Q 23.140625 64.359375 26.78125 53.3125 
Q 30.421875 42.28125 30.421875 31.390625 
Q 30.421875 20.453125 26.78125 9.375 
Q 23.140625 -1.703125 15.828125 -13.1875 
L 8.015625 -13.1875 
Q 14.5 -2 17.703125 9.0625 
Q 20.90625 20.125 20.90625 31.390625 
Q 20.90625 42.671875 17.703125 53.65625 
Q 14.5 64.65625 8.015625 75.875 
z
" id="DejaVuSans-41"/>
      </defs>
      <use xlink:href="#DejaVuSans-70"/>
      <use x="50.269531" xlink:href="#DejaVuSans-114"/>
      <use x="89.132812" xlink:href="#DejaVuSans-101"/>
      <use x="150.65625" xlink:href="#DejaVuSans-113"/>
      <use x="214.132812" xlink:href="#DejaVuSans-117"/>
      <use x="277.511719" xlink:href="#DejaVuSans-101"/>
      <use x="339.035156" xlink:href="#DejaVuSans-110"/>
      <use x="402.414062" xlink:href="#DejaVuSans-99"/>
      <use x="457.394531" xlink:href="#DejaVuSans-121"/>
      <use x="516.574219" xlink:href="#DejaVuSans-32"/>
      <use x="548.361328" xlink:href="#DejaVuSans-40"/>
      <use x="587.375" xlink:href="#DejaVuSans-72"/>
      <use x="662.570312" xlink:href="#DejaVuSans-122"/>
      <use x="715.060547" xlink:href="#DejaVuSans-41"/>
     </g>
    </g>
   </g>
   <g id="matplotlib.axis_2">
    <g id="ytick_1">
     <g id="line2d_22">
      <path clip-path="url(#pb6cc520b56)" d="M 56.867188 171.6555 
L 307.967188 171.6555 
" style="fill:none;stroke:#b0b0b0;stroke-linecap:square;stroke-width:0.8;"/>
     </g>
     <g id="line2d_23">
      <defs>
       <path d="M 0 0 
L -3.5 0 
" id="mc93b0c801b" style="stroke:#000000;stroke-width:0.8;"/>
      </defs>
      <g>
       <use style="stroke:#000000;stroke-width:0.8;" x="56.867188" xlink:href="#mc93b0c801b" y="171.6555"/>
      </g>
     </g>
     <g id="text_4">
      <!-- −124 -->
      <g transform="translate(22.4 175.454719)scale(0.1 -0.1)">
       <defs>
        <path d="M 19.1875 8.296875 
L 53.609375 8.296875 
L 53.609375 0 
L 7.328125 0 
L 7.328125 8.296875 
Q 12.9375 14.109375 22.625 23.890625 
Q 32.328125 33.6875 34.8125 36.53125 
Q 39.546875 41.84375 41.421875 45.53125 
Q 43.3125 49.21875 43.3125 52.78125 
Q 43.3125 58.59375 39.234375 62.25 
Q 35.15625 65.921875 28.609375 65.921875 
Q 23.96875 65.921875 18.8125 64.3125 
Q 13.671875 62.703125 7.8125 59.421875 
L 7.8125 69.390625 
Q 13.765625 71.78125 18.9375 73 
Q 24.125 74.21875 28.421875 74.21875 
Q 39.75 74.21875 46.484375 68.546875 
Q 53.21875 62.890625 53.21875 53.421875 
Q 53.21875 48.921875 51.53125 44.890625 
Q 49.859375 40.875 45.40625 35.40625 
Q 44.1875 33.984375 37.640625 27.21875 
Q 31.109375 20.453125 19.1875 8.296875 
z
" id="DejaVuSans-50"/>
       </defs>
       <use xlink:href="#DejaVuSans-8722"/>
       <use x="83.789062" xlink:href="#DejaVuSans-49"/>
       <use x="147.412109" xlink:href="#DejaVuSans-50"/>
       <use x="211.035156" xlink:href="#DejaVuSans-52"/>
      </g>
     </g>
    </g>
    <g id="ytick_2">
     <g id="line2d_24">
      <path clip-path="url(#pb6cc520b56)" d="M 56.867188 155.93842 
L 307.967188 155.93842 
" style="fill:none;stroke:#b0b0b0;stroke-linecap:square;stroke-width:0.8;"/>
     </g>
     <g id="line2d_25">
      <g>
       <use style="stroke:#000000;stroke-width:0.8;" x="56.867188" xlink:href="#mc93b0c801b" y="155.93842"/>
      </g>
     </g>
     <g id="text_5">
      <!-- −114 -->
      <g transform="translate(22.4 159.737639)scale(0.1 -0.1)">
       <use xlink:href="#DejaVuSans-8722"/>
       <use x="83.789062" xlink:href="#DejaVuSans-49"/>
       <use x="147.412109" xlink:href="#DejaVuSans-49"/>
       <use x="211.035156" xlink:href="#DejaVuSans-52"/>
      </g>
     </g>
    </g>
    <g id="ytick_3">
     <g id="line2d_26">
      <path clip-path="url(#pb6cc520b56)" d="M 56.867188 140.22134 
L 307.967188 140.22134 
" style="fill:none;stroke:#b0b0b0;stroke-linecap:square;stroke-width:0.8;"/>
     </g>
     <g id="line2d_27">
      <g>
       <use style="stroke:#000000;stroke-width:0.8;" x="56.867188" xlink:href="#mc93b0c801b" y="140.22134"/>
      </g>
     </g>
     <g id="text_6">
      <!-- −104 -->
      <g transform="translate(22.4 144.020559)scale(0.1 -0.1)">
       <use xlink:href="#DejaVuSans-8722"/>
       <use x="83.789062" xlink:href="#DejaVuSans-49"/>
       <use x="147.412109" xlink:href="#DejaVuSans-48"/>
       <use x="211.035156" xlink:href="#DejaVuSans-52"/>
      </g>
     </g>
    </g>
    <g id="ytick_4">
     <g id="line2d_28">
      <path clip-path="url(#pb6cc520b56)" d="M 56.867188 124.50426 
L 307.967188 124.50426 
" style="fill:none;stroke:#b0b0b0;stroke-linecap:square;stroke-width:0.8;"/>
     </g>
     <g id="line2d_29">
      <g>
       <use style="stroke:#000000;stroke-width:0.8;" x="56.867188" xlink:href="#mc93b0c801b" y="124.50426"/>
      </g>
     </g>
     <g id="text_7">
      <!-- −94 -->
      <g transform="translate(28.7625 128.303479)scale(0.1 -0.1)">
       <defs>
        <path d="M 10.984375 1.515625 
L 10.984375 10.5 
Q 14.703125 8.734375 18.5 7.8125 
Q 22.3125 6.890625 25.984375 6.890625 
Q 35.75 6.890625 40.890625 13.453125 
Q 46.046875 20.015625 46.78125 33.40625 
Q 43.953125 29.203125 39.59375 26.953125 
Q 35.25 24.703125 29.984375 24.703125 
Q 19.046875 24.703125 12.671875 31.3125 
Q 6.296875 37.9375 6.296875 49.421875 
Q 6.296875 60.640625 12.9375 67.421875 
Q 19.578125 74.21875 30.609375 74.21875 
Q 43.265625 74.21875 49.921875 64.515625 
Q 56.59375 54.828125 56.59375 36.375 
Q 56.59375 19.140625 48.40625 8.859375 
Q 40.234375 -1.421875 26.421875 -1.421875 
Q 22.703125 -1.421875 18.890625 -0.6875 
Q 15.09375 0.046875 10.984375 1.515625 
z
M 30.609375 32.421875 
Q 37.25 32.421875 41.125 36.953125 
Q 45.015625 41.5 45.015625 49.421875 
Q 45.015625 57.28125 41.125 61.84375 
Q 37.25 66.40625 30.609375 66.40625 
Q 23.96875 66.40625 20.09375 61.84375 
Q 16.21875 57.28125 16.21875 49.421875 
Q 16.21875 41.5 20.09375 36.953125 
Q 23.96875 32.421875 30.609375 32.421875 
z
" id="DejaVuSans-57"/>
       </defs>
       <use xlink:href="#DejaVuSans-8722"/>
       <use x="83.789062" xlink:href="#DejaVuSans-57"/>
       <use x="147.412109" xlink:href="#DejaVuSans-52"/>
      </g>
     </g>
    </g>
    <g id="ytick_5">
     <g id="line2d_30">
      <path clip-path="url(#pb6cc520b56)" d="M 56.867188 108.78718 
L 307.967188 108.78718 
" style="fill:none;stroke:#b0b0b0;stroke-linecap:square;stroke-width:0.8;"/>
     </g>
     <g id="line2d_31">
      <g>
       <use style="stroke:#000000;stroke-width:0.8;" x="56.867188" xlink:href="#mc93b0c801b" y="108.78718"/>
      </g>
     </g>
     <g id="text_8">
      <!-- −84 -->
      <g transform="translate(28.7625 112.586399)scale(0.1 -0.1)">
       <defs>
        <path d="M 31.78125 34.625 
Q 24.75 34.625 20.71875 30.859375 
Q 16.703125 27.09375 16.703125 20.515625 
Q 16.703125 13.921875 20.71875 10.15625 
Q 24.75 6.390625 31.78125 6.390625 
Q 38.8125 6.390625 42.859375 10.171875 
Q 46.921875 13.96875 46.921875 20.515625 
Q 46.921875 27.09375 42.890625 30.859375 
Q 38.875 34.625 31.78125 34.625 
z
M 21.921875 38.8125 
Q 15.578125 40.375 12.03125 44.71875 
Q 8.5 49.078125 8.5 55.328125 
Q 8.5 64.0625 14.71875 69.140625 
Q 20.953125 74.21875 31.78125 74.21875 
Q 42.671875 74.21875 48.875 69.140625 
Q 55.078125 64.0625 55.078125 55.328125 
Q 55.078125 49.078125 51.53125 44.71875 
Q 48 40.375 41.703125 38.8125 
Q 48.828125 37.15625 52.796875 32.3125 
Q 56.78125 27.484375 56.78125 20.515625 
Q 56.78125 9.90625 50.3125 4.234375 
Q 43.84375 -1.421875 31.78125 -1.421875 
Q 19.734375 -1.421875 13.25 4.234375 
Q 6.78125 9.90625 6.78125 20.515625 
Q 6.78125 27.484375 10.78125 32.3125 
Q 14.796875 37.15625 21.921875 38.8125 
z
M 18.3125 54.390625 
Q 18.3125 48.734375 21.84375 45.5625 
Q 25.390625 42.390625 31.78125 42.390625 
Q 38.140625 42.390625 41.71875 45.5625 
Q 45.3125 48.734375 45.3125 54.390625 
Q 45.3125 60.0625 41.71875 63.234375 
Q 38.140625 66.40625 31.78125 66.40625 
Q 25.390625 66.40625 21.84375 63.234375 
Q 18.3125 60.0625 18.3125 54.390625 
z
" id="DejaVuSans-56"/>
       </defs>
       <use xlink:href="#DejaVuSans-8722"/>
       <use x="83.789062" xlink:href="#DejaVuSans-56"/>
       <use x="147.412109" xlink:href="#DejaVuSans-52"/>
      </g>
     </g>
    </g>
    <g id="ytick_6">
     <g id="line2d_32">
      <path clip-path="url(#pb6cc520b56)" d="M 56.867188 93.0701 
L 307.967188 93.0701 
" style="fill:none;stroke:#b0b0b0;stroke-linecap:square;stroke-width:0.8;"/>
     </g>
     <g id="line2d_33">
      <g>
       <use style="stroke:#000000;stroke-width:0.8;" x="56.867188" xlink:href="#mc93b0c801b" y="93.0701"/>
      </g>
     </g>
     <g id="text_9">
      <!-- −74 -->
      <g transform="translate(28.7625 96.869319)scale(0.1 -0.1)">
       <defs>
        <path d="M 8.203125 72.90625 
L 55.078125 72.90625 
L 55.078125 68.703125 
L 28.609375 0 
L 18.3125 0 
L 43.21875 64.59375 
L 8.203125 64.59375 
z
" id="DejaVuSans-55"/>
       </defs>
       <use xlink:href="#DejaVuSans-8722"/>
       <use x="83.789062" xlink:href="#DejaVuSans-55"/>
       <use x="147.412109" xlink:href="#DejaVuSans-52"/>
      </g>
     </g>
    </g>
    <g id="ytick_7">
     <g id="line2d_34">
      <path clip-path="url(#pb6cc520b56)" d="M 56.867188 77.35302 
L 307.967188 77.35302 
" style="fill:none;stroke:#b0b0b0;stroke-linecap:square;stroke-width:0.8;"/>
     </g>
     <g id="line2d_35">
      <g>
       <use style="stroke:#000000;stroke-width:0.8;" x="56.867188" xlink:href="#mc93b0c801b" y="77.35302"/>
      </g>
     </g>
     <g id="text_10">
      <!-- −64 -->
      <g transform="translate(28.7625 81.152239)scale(0.1 -0.1)">
       <defs>
        <path d="M 33.015625 40.375 
Q 26.375 40.375 22.484375 35.828125 
Q 18.609375 31.296875 18.609375 23.390625 
Q 18.609375 15.53125 22.484375 10.953125 
Q 26.375 6.390625 33.015625 6.390625 
Q 39.65625 6.390625 43.53125 10.953125 
Q 47.40625 15.53125 47.40625 23.390625 
Q 47.40625 31.296875 43.53125 35.828125 
Q 39.65625 40.375 33.015625 40.375 
z
M 52.59375 71.296875 
L 52.59375 62.3125 
Q 48.875 64.0625 45.09375 64.984375 
Q 41.3125 65.921875 37.59375 65.921875 
Q 27.828125 65.921875 22.671875 59.328125 
Q 17.53125 52.734375 16.796875 39.40625 
Q 19.671875 43.65625 24.015625 45.921875 
Q 28.375 48.1875 33.59375 48.1875 
Q 44.578125 48.1875 50.953125 41.515625 
Q 57.328125 34.859375 57.328125 23.390625 
Q 57.328125 12.15625 50.6875 5.359375 
Q 44.046875 -1.421875 33.015625 -1.421875 
Q 20.359375 -1.421875 13.671875 8.265625 
Q 6.984375 17.96875 6.984375 36.375 
Q 6.984375 53.65625 15.1875 63.9375 
Q 23.390625 74.21875 37.203125 74.21875 
Q 40.921875 74.21875 44.703125 73.484375 
Q 48.484375 72.75 52.59375 71.296875 
z
" id="DejaVuSans-54"/>
       </defs>
       <use xlink:href="#DejaVuSans-8722"/>
       <use x="83.789062" xlink:href="#DejaVuSans-54"/>
       <use x="147.412109" xlink:href="#DejaVuSans-52"/>
      </g>
     </g>
    </g>
    <g id="ytick_8">
     <g id="line2d_36">
      <path clip-path="url(#pb6cc520b56)" d="M 56.867188 61.63594 
L 307.967188 61.63594 
" style="fill:none;stroke:#b0b0b0;stroke-linecap:square;stroke-width:0.8;"/>
     </g>
     <g id="line2d_37">
      <g>
       <use style="stroke:#000000;stroke-width:0.8;" x="56.867188" xlink:href="#mc93b0c801b" y="61.63594"/>
      </g>
     </g>
     <g id="text_11">
      <!-- −54 -->
      <g transform="translate(28.7625 65.435158)scale(0.1 -0.1)">
       <defs>
        <path d="M 10.796875 72.90625 
L 49.515625 72.90625 
L 49.515625 64.59375 
L 19.828125 64.59375 
L 19.828125 46.734375 
Q 21.96875 47.46875 24.109375 47.828125 
Q 26.265625 48.1875 28.421875 48.1875 
Q 40.625 48.1875 47.75 41.5 
Q 54.890625 34.8125 54.890625 23.390625 
Q 54.890625 11.625 47.5625 5.09375 
Q 40.234375 -1.421875 26.90625 -1.421875 
Q 22.3125 -1.421875 17.546875 -0.640625 
Q 12.796875 0.140625 7.71875 1.703125 
L 7.71875 11.625 
Q 12.109375 9.234375 16.796875 8.0625 
Q 21.484375 6.890625 26.703125 6.890625 
Q 35.15625 6.890625 40.078125 11.328125 
Q 45.015625 15.765625 45.015625 23.390625 
Q 45.015625 31 40.078125 35.4375 
Q 35.15625 39.890625 26.703125 39.890625 
Q 22.75 39.890625 18.8125 39.015625 
Q 14.890625 38.140625 10.796875 36.28125 
z
" id="DejaVuSans-53"/>
       </defs>
       <use xlink:href="#DejaVuSans-8722"/>
       <use x="83.789062" xlink:href="#DejaVuSans-53"/>
       <use x="147.412109" xlink:href="#DejaVuSans-52"/>
      </g>
     </g>
    </g>
    <g id="ytick_9">
     <g id="line2d_38">
      <path clip-path="url(#pb6cc520b56)" d="M 56.867188 45.91886 
L 307.967188 45.91886 
" style="fill:none;stroke:#b0b0b0;stroke-linecap:square;stroke-width:0.8;"/>
     </g>
     <g id="line2d_39">
      <g>
       <use style="stroke:#000000;stroke-width:0.8;" x="56.867188" xlink:href="#mc93b0c801b" y="45.91886"/>
      </g>
     </g>
     <g id="text_12">
      <!-- −44 -->
      <g transform="translate(28.7625 49.718078)scale(0.1 -0.1)">
       <use xlink:href="#DejaVuSans-8722"/>
       <use x="83.789062" xlink:href="#DejaVuSans-52"/>
       <use x="147.412109" xlink:href="#DejaVuSans-52"/>
      </g>
     </g>
    </g>
    <g id="text_13">
     <!-- Power Spectral Density (dB S$^2$/Hz) -->
     <g transform="translate(16.3 189.1055)rotate(-90)scale(0.1 -0.1)">
      <defs>
       <path d="M 19.671875 64.796875 
L 19.671875 37.40625 
L 32.078125 37.40625 
Q 38.96875 37.40625 42.71875 40.96875 
Q 46.484375 44.53125 46.484375 51.125 
Q 46.484375 57.671875 42.71875 61.234375 
Q 38.96875 64.796875 32.078125 64.796875 
z
M 9.8125 72.90625 
L 32.078125 72.90625 
Q 44.34375 72.90625 50.609375 67.359375 
Q 56.890625 61.8125 56.890625 51.125 
Q 56.890625 40.328125 50.609375 34.8125 
Q 44.34375 29.296875 32.078125 29.296875 
L 19.671875 29.296875 
L 19.671875 0 
L 9.8125 0 
z
" id="DejaVuSans-80"/>
       <path d="M 30.609375 48.390625 
Q 23.390625 48.390625 19.1875 42.75 
Q 14.984375 37.109375 14.984375 27.296875 
Q 14.984375 17.484375 19.15625 11.84375 
Q 23.34375 6.203125 30.609375 6.203125 
Q 37.796875 6.203125 41.984375 11.859375 
Q 46.1875 17.53125 46.1875 27.296875 
Q 46.1875 37.015625 41.984375 42.703125 
Q 37.796875 48.390625 30.609375 48.390625 
z
M 30.609375 56 
Q 42.328125 56 49.015625 48.375 
Q 55.71875 40.765625 55.71875 27.296875 
Q 55.71875 13.875 49.015625 6.21875 
Q 42.328125 -1.421875 30.609375 -1.421875 
Q 18.84375 -1.421875 12.171875 6.21875 
Q 5.515625 13.875 5.515625 27.296875 
Q 5.515625 40.765625 12.171875 48.375 
Q 18.84375 56 30.609375 56 
z
" id="DejaVuSans-111"/>
       <path d="M 4.203125 54.6875 
L 13.1875 54.6875 
L 24.421875 12.015625 
L 35.59375 54.6875 
L 46.1875 54.6875 
L 57.421875 12.015625 
L 68.609375 54.6875 
L 77.59375 54.6875 
L 63.28125 0 
L 52.6875 0 
L 40.921875 44.828125 
L 29.109375 0 
L 18.5 0 
z
" id="DejaVuSans-119"/>
       <path d="M 53.515625 70.515625 
L 53.515625 60.890625 
Q 47.90625 63.578125 42.921875 64.890625 
Q 37.9375 66.21875 33.296875 66.21875 
Q 25.25 66.21875 20.875 63.09375 
Q 16.5 59.96875 16.5 54.203125 
Q 16.5 49.359375 19.40625 46.890625 
Q 22.3125 44.4375 30.421875 42.921875 
L 36.375 41.703125 
Q 47.40625 39.59375 52.65625 34.296875 
Q 57.90625 29 57.90625 20.125 
Q 57.90625 9.515625 50.796875 4.046875 
Q 43.703125 -1.421875 29.984375 -1.421875 
Q 24.8125 -1.421875 18.96875 -0.25 
Q 13.140625 0.921875 6.890625 3.21875 
L 6.890625 13.375 
Q 12.890625 10.015625 18.65625 8.296875 
Q 24.421875 6.59375 29.984375 6.59375 
Q 38.421875 6.59375 43.015625 9.90625 
Q 47.609375 13.234375 47.609375 19.390625 
Q 47.609375 24.75 44.3125 27.78125 
Q 41.015625 30.8125 33.5 32.328125 
L 27.484375 33.5 
Q 16.453125 35.6875 11.515625 40.375 
Q 6.59375 45.0625 6.59375 53.421875 
Q 6.59375 63.09375 13.40625 68.65625 
Q 20.21875 74.21875 32.171875 74.21875 
Q 37.3125 74.21875 42.625 73.28125 
Q 47.953125 72.359375 53.515625 70.515625 
z
" id="DejaVuSans-83"/>
       <path d="M 18.109375 8.203125 
L 18.109375 -20.796875 
L 9.078125 -20.796875 
L 9.078125 54.6875 
L 18.109375 54.6875 
L 18.109375 46.390625 
Q 20.953125 51.265625 25.265625 53.625 
Q 29.59375 56 35.59375 56 
Q 45.5625 56 51.78125 48.09375 
Q 58.015625 40.1875 58.015625 27.296875 
Q 58.015625 14.40625 51.78125 6.484375 
Q 45.5625 -1.421875 35.59375 -1.421875 
Q 29.59375 -1.421875 25.265625 0.953125 
Q 20.953125 3.328125 18.109375 8.203125 
z
M 48.6875 27.296875 
Q 48.6875 37.203125 44.609375 42.84375 
Q 40.53125 48.484375 33.40625 48.484375 
Q 26.265625 48.484375 22.1875 42.84375 
Q 18.109375 37.203125 18.109375 27.296875 
Q 18.109375 17.390625 22.1875 11.75 
Q 26.265625 6.109375 33.40625 6.109375 
Q 40.53125 6.109375 44.609375 11.75 
Q 48.6875 17.390625 48.6875 27.296875 
z
" id="DejaVuSans-112"/>
       <path d="M 18.3125 70.21875 
L 18.3125 54.6875 
L 36.8125 54.6875 
L 36.8125 47.703125 
L 18.3125 47.703125 
L 18.3125 18.015625 
Q 18.3125 11.328125 20.140625 9.421875 
Q 21.96875 7.515625 27.59375 7.515625 
L 36.8125 7.515625 
L 36.8125 0 
L 27.59375 0 
Q 17.1875 0 13.234375 3.875 
Q 9.28125 7.765625 9.28125 18.015625 
L 9.28125 47.703125 
L 2.6875 47.703125 
L 2.6875 54.6875 
L 9.28125 54.6875 
L 9.28125 70.21875 
z
" id="DejaVuSans-116"/>
       <path d="M 34.28125 27.484375 
Q 23.390625 27.484375 19.1875 25 
Q 14.984375 22.515625 14.984375 16.5 
Q 14.984375 11.71875 18.140625 8.90625 
Q 21.296875 6.109375 26.703125 6.109375 
Q 34.1875 6.109375 38.703125 11.40625 
Q 43.21875 16.703125 43.21875 25.484375 
L 43.21875 27.484375 
z
M 52.203125 31.203125 
L 52.203125 0 
L 43.21875 0 
L 43.21875 8.296875 
Q 40.140625 3.328125 35.546875 0.953125 
Q 30.953125 -1.421875 24.3125 -1.421875 
Q 15.921875 -1.421875 10.953125 3.296875 
Q 6 8.015625 6 15.921875 
Q 6 25.140625 12.171875 29.828125 
Q 18.359375 34.515625 30.609375 34.515625 
L 43.21875 34.515625 
L 43.21875 35.40625 
Q 43.21875 41.609375 39.140625 45 
Q 35.0625 48.390625 27.6875 48.390625 
Q 23 48.390625 18.546875 47.265625 
Q 14.109375 46.140625 10.015625 43.890625 
L 10.015625 52.203125 
Q 14.9375 54.109375 19.578125 55.046875 
Q 24.21875 56 28.609375 56 
Q 40.484375 56 46.34375 49.84375 
Q 52.203125 43.703125 52.203125 31.203125 
z
" id="DejaVuSans-97"/>
       <path d="M 9.421875 75.984375 
L 18.40625 75.984375 
L 18.40625 0 
L 9.421875 0 
z
" id="DejaVuSans-108"/>
       <path d="M 19.671875 64.796875 
L 19.671875 8.109375 
L 31.59375 8.109375 
Q 46.6875 8.109375 53.6875 14.9375 
Q 60.6875 21.78125 60.6875 36.53125 
Q 60.6875 51.171875 53.6875 57.984375 
Q 46.6875 64.796875 31.59375 64.796875 
z
M 9.8125 72.90625 
L 30.078125 72.90625 
Q 51.265625 72.90625 61.171875 64.09375 
Q 71.09375 55.28125 71.09375 36.53125 
Q 71.09375 17.671875 61.125 8.828125 
Q 51.171875 0 30.078125 0 
L 9.8125 0 
z
" id="DejaVuSans-68"/>
       <path d="M 44.28125 53.078125 
L 44.28125 44.578125 
Q 40.484375 46.53125 36.375 47.5 
Q 32.28125 48.484375 27.875 48.484375 
Q 21.1875 48.484375 17.84375 46.4375 
Q 14.5 44.390625 14.5 40.28125 
Q 14.5 37.15625 16.890625 35.375 
Q 19.28125 33.59375 26.515625 31.984375 
L 29.59375 31.296875 
Q 39.15625 29.25 43.1875 25.515625 
Q 47.21875 21.78125 47.21875 15.09375 
Q 47.21875 7.46875 41.1875 3.015625 
Q 35.15625 -1.421875 24.609375 -1.421875 
Q 20.21875 -1.421875 15.453125 -0.5625 
Q 10.6875 0.296875 5.421875 2 
L 5.421875 11.28125 
Q 10.40625 8.6875 15.234375 7.390625 
Q 20.0625 6.109375 24.8125 6.109375 
Q 31.15625 6.109375 34.5625 8.28125 
Q 37.984375 10.453125 37.984375 14.40625 
Q 37.984375 18.0625 35.515625 20.015625 
Q 33.0625 21.96875 24.703125 23.78125 
L 21.578125 24.515625 
Q 13.234375 26.265625 9.515625 29.90625 
Q 5.8125 33.546875 5.8125 39.890625 
Q 5.8125 47.609375 11.28125 51.796875 
Q 16.75 56 26.8125 56 
Q 31.78125 56 36.171875 55.265625 
Q 40.578125 54.546875 44.28125 53.078125 
z
" id="DejaVuSans-115"/>
       <path d="M 9.421875 54.6875 
L 18.40625 54.6875 
L 18.40625 0 
L 9.421875 0 
z
M 9.421875 75.984375 
L 18.40625 75.984375 
L 18.40625 64.59375 
L 9.421875 64.59375 
z
" id="DejaVuSans-105"/>
       <path d="M 45.40625 46.390625 
L 45.40625 75.984375 
L 54.390625 75.984375 
L 54.390625 0 
L 45.40625 0 
L 45.40625 8.203125 
Q 42.578125 3.328125 38.25 0.953125 
Q 33.9375 -1.421875 27.875 -1.421875 
Q 17.96875 -1.421875 11.734375 6.484375 
Q 5.515625 14.40625 5.515625 27.296875 
Q 5.515625 40.1875 11.734375 48.09375 
Q 17.96875 56 27.875 56 
Q 33.9375 56 38.25 53.625 
Q 42.578125 51.265625 45.40625 46.390625 
z
M 14.796875 27.296875 
Q 14.796875 17.390625 18.875 11.75 
Q 22.953125 6.109375 30.078125 6.109375 
Q 37.203125 6.109375 41.296875 11.75 
Q 45.40625 17.390625 45.40625 27.296875 
Q 45.40625 37.203125 41.296875 42.84375 
Q 37.203125 48.484375 30.078125 48.484375 
Q 22.953125 48.484375 18.875 42.84375 
Q 14.796875 37.203125 14.796875 27.296875 
z
" id="DejaVuSans-100"/>
       <path d="M 19.671875 34.8125 
L 19.671875 8.109375 
L 35.5 8.109375 
Q 43.453125 8.109375 47.28125 11.40625 
Q 51.125 14.703125 51.125 21.484375 
Q 51.125 28.328125 47.28125 31.5625 
Q 43.453125 34.8125 35.5 34.8125 
z
M 19.671875 64.796875 
L 19.671875 42.828125 
L 34.28125 42.828125 
Q 41.5 42.828125 45.03125 45.53125 
Q 48.578125 48.25 48.578125 53.8125 
Q 48.578125 59.328125 45.03125 62.0625 
Q 41.5 64.796875 34.28125 64.796875 
z
M 9.8125 72.90625 
L 35.015625 72.90625 
Q 46.296875 72.90625 52.390625 68.21875 
Q 58.5 63.53125 58.5 54.890625 
Q 58.5 48.1875 55.375 44.234375 
Q 52.25 40.28125 46.1875 39.3125 
Q 53.46875 37.75 57.5 32.78125 
Q 61.53125 27.828125 61.53125 20.40625 
Q 61.53125 10.640625 54.890625 5.3125 
Q 48.25 0 35.984375 0 
L 9.8125 0 
z
" id="DejaVuSans-66"/>
       <path d="M 25.390625 72.90625 
L 33.6875 72.90625 
L 8.296875 -9.28125 
L 0 -9.28125 
z
" id="DejaVuSans-47"/>
      </defs>
      <use transform="translate(0 0.765625)" xlink:href="#DejaVuSans-80"/>
      <use transform="translate(60.302734 0.765625)" xlink:href="#DejaVuSans-111"/>
      <use transform="translate(121.484375 0.765625)" xlink:href="#DejaVuSans-119"/>
      <use transform="translate(203.271484 0.765625)" xlink:href="#DejaVuSans-101"/>
      <use transform="translate(264.794922 0.765625)" xlink:href="#DejaVuSans-114"/>
      <use transform="translate(305.908203 0.765625)" xlink:href="#DejaVuSans-32"/>
      <use transform="translate(337.695312 0.765625)" xlink:href="#DejaVuSans-83"/>
      <use transform="translate(401.171875 0.765625)" xlink:href="#DejaVuSans-112"/>
      <use transform="translate(464.648438 0.765625)" xlink:href="#DejaVuSans-101"/>
      <use transform="translate(526.171875 0.765625)" xlink:href="#DejaVuSans-99"/>
      <use transform="translate(581.152344 0.765625)" xlink:href="#DejaVuSans-116"/>
      <use transform="translate(620.361328 0.765625)" xlink:href="#DejaVuSans-114"/>
      <use transform="translate(661.474609 0.765625)" xlink:href="#DejaVuSans-97"/>
      <use transform="translate(722.753906 0.765625)" xlink:href="#DejaVuSans-108"/>
      <use transform="translate(750.537109 0.765625)" xlink:href="#DejaVuSans-32"/>
      <use transform="translate(782.324219 0.765625)" xlink:href="#DejaVuSans-68"/>
      <use transform="translate(859.326172 0.765625)" xlink:href="#DejaVuSans-101"/>
      <use transform="translate(920.849609 0.765625)" xlink:href="#DejaVuSans-110"/>
      <use transform="translate(984.228516 0.765625)" xlink:href="#DejaVuSans-115"/>
      <use transform="translate(1036.328125 0.765625)" xlink:href="#DejaVuSans-105"/>
      <use transform="translate(1064.111328 0.765625)" xlink:href="#DejaVuSans-116"/>
      <use transform="translate(1103.320312 0.765625)" xlink:href="#DejaVuSans-121"/>
      <use transform="translate(1162.5 0.765625)" xlink:href="#DejaVuSans-32"/>
      <use transform="translate(1194.287109 0.765625)" xlink:href="#DejaVuSans-40"/>
      <use transform="translate(1233.300781 0.765625)" xlink:href="#DejaVuSans-100"/>
      <use transform="translate(1296.777344 0.765625)" xlink:href="#DejaVuSans-66"/>
      <use transform="translate(1365.380859 0.765625)" xlink:href="#DejaVuSans-32"/>
      <use transform="translate(1397.167969 0.765625)" xlink:href="#DejaVuSans-83"/>
      <use transform="translate(1461.601562 39.046875)scale(0.7)" xlink:href="#DejaVuSans-50"/>
      <use transform="translate(1508.87207 0.765625)" xlink:href="#DejaVuSans-47"/>
      <use transform="translate(1540.813477 0.765625)" xlink:href="#DejaVuSans-72"/>
      <use transform="translate(1616.008789 0.765625)" xlink:href="#DejaVuSans-122"/>
      <use transform="translate(1668.499023 0.765625)" xlink:href="#DejaVuSans-41"/>
     </g>
    </g>
   </g>
   <g id="line2d_40">
    <path clip-path="url(#pb6cc520b56)" d="M -1 74.718532 
L 70.701662 74.71634 
L 102.819292 79.168904 
L 121.606901 86.094707 
L 134.936922 92.762269 
L 145.27649 97.10169 
L 153.724532 101.839774 
L 160.867249 106.792684 
L 167.054553 108.265172 
L 172.512141 106.001831 
L 177.39412 105.935175 
L 181.810408 111.327615 
L 185.842162 124.491407 
L 189.551017 116.221896 
L 192.98488 110.270137 
L 196.18173 109.364583 
L 199.172183 112.022047 
L 204.629772 124.583975 
L 207.135027 121.295655 
L 209.511751 118.900631 
L 211.772489 117.32231 
L 213.928038 114.944824 
L 215.987753 113.252364 
L 217.959793 112.831815 
L 219.851318 113.240203 
L 221.668647 114.585248 
L 223.417381 117.15386 
L 225.10251 119.400099 
L 226.7285 119.45308 
L 228.29936 119.838648 
L 229.818708 122.457641 
L 231.289813 123.852268 
L 232.715647 120.462352 
L 234.098913 118.236375 
L 235.442078 119.286805 
L 236.747402 122.107128 
L 238.016959 120.503104 
L 239.252658 116.620189 
L 240.456256 115.083489 
L 241.629381 116.006002 
L 242.773537 118.78727 
L 243.890119 123.160736 
L 244.980427 125.403104 
L 246.045668 119.776326 
L 247.086969 114.970704 
L 248.105383 113.377497 
L 249.101893 114.89541 
L 250.077423 120.131285 
L 251.032837 133.002211 
L 251.968949 133.77141 
L 252.886522 122.563207 
L 253.786277 119.161454 
L 254.668894 118.669789 
L 255.535011 118.563079 
L 256.385236 118.72374 
L 257.22014 120.941731 
L 258.040267 123.682139 
L 258.84613 119.192844 
L 259.638217 113.875892 
L 260.41699 111.829138 
L 261.182891 113.539514 
L 261.936338 120.750086 
L 262.677729 136.773115 
L 263.407444 123.802071 
L 264.125845 120.135432 
L 264.833278 123.583535 
L 265.530072 135.221656 
L 266.216543 148.67703 
L 266.892992 132.443648 
L 267.559708 126.787273 
L 268.216966 125.257944 
L 268.865032 125.347686 
L 269.504159 123.101488 
L 270.13459 120.064414 
L 270.756558 118.763928 
L 271.370288 119.868762 
L 271.975995 124.876851 
L 272.573887 140.37957 
L 273.164162 136.874181 
L 273.747011 128.404676 
L 274.322621 129.576496 
L 274.891167 134.344325 
L 276.00775 122.097783 
L 276.556111 120.054985 
L 277.098058 120.145055 
L 277.633739 119.274922 
L 278.163299 116.753791 
L 278.686874 115.159189 
L 279.2046 116.07036 
L 279.716604 120.854873 
L 280.223013 132.948387 
L 280.723947 133.890986 
L 281.219524 124.93105 
L 281.709856 120.869254 
L 282.195053 117.833089 
L 282.675223 115.988376 
L 283.150467 115.221665 
L 283.620887 114.734898 
L 284.086579 115.001954 
L 284.547637 117.226783 
L 285.004152 122.077188 
L 285.456214 130.766933 
L 285.903908 164.716641 
L 286.347317 131.888978 
L 286.786524 124.017379 
L 287.221606 122.746249 
L 287.652642 125.439984 
L 288.502866 134.916058 
L 288.922199 132.752536 
L 289.337771 124.509823 
L 289.749649 119.249044 
L 290.157897 116.028729 
L 290.562581 114.36863 
L 291.361496 114.255211 
L 291.755847 113.264332 
L 292.14687 112.994285 
L 292.534621 113.506049 
L 293.300522 111.616925 
L 293.678776 112.75415 
L 294.053968 116.692951 
L 294.795359 131.202772 
L 295.161653 122.757552 
L 295.525074 124.238744 
L 295.525074 124.238744 
" style="fill:none;stroke:#1f77b4;stroke-linecap:square;stroke-width:1.5;"/>
   </g>
   <g id="line2d_41">
    <path clip-path="url(#pb6cc520b56)" d="M -1 68.174962 
L 70.18347 68.17286 
L 102.301101 72.953623 
L 121.08871 80.082918 
L 134.418731 85.435351 
L 144.758299 88.145037 
L 153.20634 91.274796 
L 160.349058 93.613178 
L 171.99395 97.125985 
L 176.875929 98.225519 
L 181.292216 99.957286 
L 185.323971 102.222098 
L 189.032825 103.430997 
L 192.466688 103.028628 
L 195.663538 102.498753 
L 204.11158 103.277031 
L 206.616836 103.793021 
L 208.993559 103.987343 
L 211.254298 103.446372 
L 213.409847 103.829999 
L 215.469561 106.3804 
L 217.441601 109.907233 
L 219.333127 110.778605 
L 221.150456 111.415831 
L 222.899189 115.064919 
L 224.584319 116.754771 
L 226.210308 112.652939 
L 227.781169 110.73953 
L 229.300516 112.658182 
L 230.771622 117.945481 
L 232.197456 118.305316 
L 233.580721 113.291888 
L 234.923886 110.551564 
L 236.22921 109.281711 
L 237.498768 108.663743 
L 239.938065 108.796904 
L 241.11119 109.313883 
L 242.255345 112.405345 
L 243.371928 120.509274 
L 244.462236 122.468911 
L 245.527477 116.499066 
L 246.568778 116.345673 
L 247.587191 118.370113 
L 248.583702 116.541179 
L 249.559231 115.364203 
L 250.514646 119.289191 
L 251.450757 134.691895 
L 252.368331 131.251282 
L 253.268086 121.165368 
L 254.150702 117.731584 
L 255.01682 115.550685 
L 255.867044 114.882473 
L 256.701949 117.069876 
L 257.522076 122.331652 
L 258.327938 126.038423 
L 259.898799 122.039811 
L 260.6647 119.9157 
L 261.418146 118.827684 
L 262.159537 119.998296 
L 262.889252 121.80214 
L 263.607654 120.619157 
L 264.315086 118.326792 
L 265.011881 117.396344 
L 265.698352 117.924637 
L 266.374801 117.862579 
L 267.041517 115.637291 
L 267.698775 114.524767 
L 268.346841 117.223274 
L 268.985967 125.28768 
L 269.616398 128.173293 
L 270.238366 121.892875 
L 270.852097 119.740174 
L 271.457804 119.880558 
L 272.055695 121.347314 
L 272.64597 121.529467 
L 273.804429 114.931722 
L 274.372975 113.829932 
L 274.93463 113.474407 
L 275.489558 114.000929 
L 276.037919 116.912254 
L 276.579866 123.450845 
L 277.115548 134.451634 
L 277.645107 131.986801 
L 278.168683 120.927065 
L 278.686408 114.837897 
L 279.198413 112.082965 
L 279.704822 112.03869 
L 280.205756 115.279542 
L 281.191664 132.284 
L 281.676862 123.316738 
L 282.157031 122.032113 
L 282.632276 125.853412 
L 283.102696 131.4119 
L 283.568387 132.261252 
L 285.385716 122.270313 
L 285.829126 122.201755 
L 286.268332 126.097927 
L 286.703415 126.732811 
L 287.13445 120.88862 
L 287.561513 118.11441 
L 287.984675 118.765599 
L 288.404007 122.276557 
L 288.819579 129.120571 
L 289.231457 142.803546 
L 290.044389 128.015809 
L 290.445569 126.537759 
L 290.843305 128.986225 
L 291.237656 128.162986 
L 291.628679 123.073054 
L 292.016429 120.39037 
L 292.400962 120.245097 
L 292.78233 120.964878 
L 293.160585 120.655555 
L 293.535777 119.364245 
L 293.907955 118.645427 
L 294.277168 119.916799 
L 294.643462 124.293672 
L 295.006883 133.734909 
L 295.006883 133.734909 
" style="fill:none;stroke:#ff7f0e;stroke-linecap:square;stroke-width:1.5;"/>
   </g>
   <g id="line2d_42">
    <path clip-path="url(#pb6cc520b56)" d="M -1 57.197189 
L 68.484725 57.195154 
L 100.602355 62.068251 
L 132.719986 74.388662 
L 143.059553 76.670814 
L 151.507595 79.513544 
L 164.837616 83.75374 
L 170.295204 85.844275 
L 175.177184 87.280443 
L 183.625225 89.956178 
L 187.33408 90.740867 
L 190.767943 91.789158 
L 196.955246 94.334657 
L 199.764346 94.785456 
L 202.412835 94.606307 
L 204.918091 94.880693 
L 207.294814 95.714311 
L 209.555552 96.772573 
L 211.711101 98.173088 
L 213.770816 99.801784 
L 215.742856 100.392529 
L 217.634382 99.592954 
L 219.45171 99.254034 
L 221.200444 100.065092 
L 222.885573 100.970223 
L 224.511563 101.190399 
L 227.601771 101.304565 
L 229.072877 100.852619 
L 230.498711 100.538488 
L 231.881976 101.665384 
L 233.225141 104.830969 
L 234.530465 108.855302 
L 235.800023 109.312293 
L 237.035721 106.944201 
L 238.23932 105.963413 
L 239.412444 106.958056 
L 240.5566 108.950071 
L 241.673183 109.985225 
L 242.763491 107.949817 
L 243.828732 105.10067 
L 244.870033 104.139169 
L 245.888446 105.315723 
L 246.884956 107.830401 
L 247.860486 110.897698 
L 248.8159 112.654969 
L 250.669585 109.371333 
L 252.451957 107.541283 
L 253.318074 107.422315 
L 254.168299 108.916272 
L 255.003204 109.703567 
L 255.82333 108.529063 
L 256.629193 107.891377 
L 257.42128 107.875785 
L 258.200054 108.070231 
L 258.965955 109.834554 
L 259.719401 112.478128 
L 260.460792 111.443054 
L 261.190507 109.975285 
L 261.908908 111.682159 
L 262.616341 114.503409 
L 263.313135 113.355959 
L 263.999606 111.488902 
L 264.676055 111.130205 
L 265.342771 110.520562 
L 266.648095 106.745761 
L 267.287222 106.987863 
L 267.917653 109.775477 
L 268.539621 114.321283 
L 269.153351 114.234028 
L 269.759059 109.283744 
L 270.35695 106.222941 
L 270.947225 105.894699 
L 271.530075 107.82437 
L 272.105684 111.742819 
L 272.67423 118.228877 
L 273.235885 120.12528 
L 273.790813 113.475584 
L 274.339174 110.23797 
L 274.881121 109.843033 
L 275.416803 110.325643 
L 275.946362 111.254729 
L 276.987663 115.073539 
L 277.499668 114.675147 
L 278.006076 114.650141 
L 278.50701 115.582172 
L 279.002587 115.94975 
L 279.492919 115.723516 
L 279.978116 114.525405 
L 280.458286 112.224144 
L 280.933531 110.787814 
L 281.40395 110.981279 
L 281.869642 111.566588 
L 282.787216 110.308832 
L 283.239277 111.237776 
L 283.686971 113.547797 
L 284.130381 115.02355 
L 284.569587 115.668699 
L 285.00467 116.953259 
L 285.862767 116.656035 
L 286.28593 120.775088 
L 286.705262 123.230581 
L 287.120834 114.829012 
L 287.532712 111.115847 
L 287.940961 112.308367 
L 288.345644 118.413039 
L 288.746824 128.558721 
L 289.144559 129.368052 
L 289.53891 131.572305 
L 289.929933 125.501199 
L 290.317684 116.617607 
L 290.702217 113.920582 
L 291.083585 116.750455 
L 291.46184 124.808433 
L 291.837031 122.368135 
L 292.20921 116.914765 
L 292.578422 116.745541 
L 292.944716 121.552722 
L 293.308137 133.005913 
L 293.308137 133.005913 
" style="fill:none;stroke:#2ca02c;stroke-linecap:square;stroke-width:1.5;"/>
   </g>
   <g id="line2d_43">
    <path clip-path="url(#pb6cc520b56)" d="M -1 54.719047 
L 71.730139 54.716929 
L 103.847769 59.654409 
L 122.635378 67.078748 
L 135.965399 72.555408 
L 146.304967 75.443005 
L 154.753009 78.915273 
L 161.895726 80.551728 
L 168.08303 81.014078 
L 173.540618 81.639609 
L 178.422597 82.545513 
L 182.838885 84.131455 
L 186.870639 85.290898 
L 190.579494 85.849623 
L 194.013357 87.310345 
L 197.210207 89.660216 
L 200.20066 91.150781 
L 203.009759 91.301572 
L 205.658248 91.96365 
L 208.163504 93.349985 
L 210.540228 93.796534 
L 212.800966 93.885673 
L 214.956515 94.727869 
L 217.016229 95.254468 
L 218.988269 95.589821 
L 220.879795 97.38909 
L 222.697124 100.174767 
L 224.445858 100.858669 
L 226.130987 99.536321 
L 227.756977 98.085768 
L 229.327837 97.344637 
L 230.847184 98.126102 
L 233.744124 102.331598 
L 235.12739 103.787147 
L 236.470555 103.023867 
L 237.775879 101.488565 
L 239.045436 102.1314 
L 240.281135 103.598245 
L 241.484733 101.950902 
L 242.657858 100.03086 
L 243.802014 100.502149 
L 244.918596 102.846918 
L 246.008904 104.083297 
L 247.074145 102.912718 
L 248.115446 102.592127 
L 249.13386 104.010818 
L 250.13037 104.914201 
L 251.1059 104.339571 
L 252.061314 104.046634 
L 252.997426 104.023153 
L 253.914999 104.279616 
L 254.814754 105.56656 
L 255.697371 106.611445 
L 257.413713 105.183453 
L 258.248617 104.808497 
L 259.068744 104.586821 
L 259.874607 105.129593 
L 260.666694 105.368274 
L 262.211368 101.1867 
L 262.964815 101.427259 
L 263.706206 104.85062 
L 264.435921 112.157144 
L 265.154322 123.197576 
L 265.861755 120.51859 
L 266.558549 113.067909 
L 267.24502 109.35059 
L 267.921469 108.595907 
L 268.588185 109.4387 
L 269.245443 109.930952 
L 269.893509 110.050369 
L 270.532636 110.777952 
L 271.163067 110.56927 
L 271.785035 108.894184 
L 272.398765 108.35377 
L 273.004472 109.808676 
L 273.602364 111.92674 
L 274.192639 112.127449 
L 275.351098 107.009306 
L 275.919644 106.79649 
L 277.036227 110.998044 
L 277.584588 109.264658 
L 278.126535 106.951164 
L 278.662216 105.667847 
L 279.191776 105.634681 
L 279.715351 107.57011 
L 280.745081 116.390738 
L 281.752424 115.225809 
L 282.248001 115.805463 
L 282.738333 115.334535 
L 283.22353 112.91966 
L 283.7037 109.585608 
L 284.178944 107.846346 
L 284.649364 109.153383 
L 285.576114 118.246116 
L 286.484691 113.943448 
L 286.932385 113.483552 
L 287.375794 113.833745 
L 287.815001 115.833875 
L 288.250083 122.626574 
L 288.681119 119.170343 
L 289.108181 109.557969 
L 289.531343 105.618937 
L 289.950676 105.418371 
L 290.366248 108.043924 
L 291.186374 118.810975 
L 291.591058 118.781889 
L 291.992237 117.208747 
L 292.389973 116.635804 
L 293.175347 115.092264 
L 293.947631 111.876749 
L 294.328999 112.016376 
L 294.707253 114.247518 
L 295.082445 115.422046 
L 295.823836 112.670971 
L 296.19013 112.402394 
L 296.553551 117.147569 
L 296.553551 117.147569 
" style="fill:none;stroke:#d62728;stroke-linecap:square;stroke-width:1.5;"/>
   </g>
   <g id="line2d_44">
    <path clip-path="url(#pb6cc520b56)" d="M -1 48.915493 
L 68.737965 48.913453 
L 100.855595 53.801577 
L 132.973226 66.296951 
L 143.312793 68.585579 
L 151.760835 71.361384 
L 165.090856 75.318368 
L 170.548445 77.399127 
L 175.430424 78.805201 
L 179.846711 80.304129 
L 183.878466 82.01193 
L 187.58732 83.431755 
L 191.021183 84.492122 
L 197.208487 85.788998 
L 200.017586 85.923394 
L 202.666075 85.78817 
L 205.171331 86.323265 
L 207.548054 87.492632 
L 209.808792 88.984344 
L 214.024056 92.59552 
L 215.996096 93.130478 
L 217.887622 92.943831 
L 219.70495 93.369204 
L 221.453684 94.504272 
L 223.138813 94.98007 
L 224.764803 94.186723 
L 226.335663 93.172218 
L 227.855011 92.707949 
L 229.326117 92.962527 
L 230.751951 93.676873 
L 232.135216 93.907587 
L 233.478381 93.112441 
L 234.783705 92.60645 
L 236.053263 93.457607 
L 237.288961 95.061641 
L 238.49256 96.105525 
L 239.665684 96.687404 
L 243.016731 98.77709 
L 244.081972 99.029656 
L 245.123273 98.425683 
L 246.141686 97.608565 
L 247.138197 97.865485 
L 249.06914 101.212992 
L 250.005252 100.940232 
L 250.922825 100.368114 
L 251.822581 100.227678 
L 253.571315 99.293732 
L 254.421539 99.901231 
L 256.882433 103.232849 
L 257.67452 104.870373 
L 258.453294 105.042834 
L 259.219195 103.736298 
L 259.972641 103.928845 
L 260.714032 106.396488 
L 261.443747 107.610331 
L 262.162148 105.376582 
L 262.869581 103.888179 
L 263.566375 103.954026 
L 264.252846 104.236386 
L 264.929296 104.011225 
L 265.596011 103.63162 
L 266.25327 103.421567 
L 266.901336 104.275199 
L 268.170893 110.60167 
L 269.406591 104.849976 
L 270.012299 105.062105 
L 270.61019 106.605029 
L 271.200465 107.343816 
L 271.783315 107.153782 
L 272.358924 107.244995 
L 272.92747 108.594147 
L 273.489125 110.221737 
L 274.044053 109.008251 
L 274.592414 106.582331 
L 275.134361 105.111135 
L 275.670043 104.522804 
L 276.199602 104.929554 
L 276.723178 106.29897 
L 277.240903 107.230587 
L 277.752908 106.728956 
L 279.255827 103.473262 
L 279.746159 103.127145 
L 280.231357 104.634291 
L 281.186771 113.327285 
L 282.122882 109.032783 
L 282.58394 109.355896 
L 283.040456 110.688354 
L 283.492517 112.361809 
L 283.940211 113.167513 
L 284.383621 109.835688 
L 284.822827 104.943324 
L 285.25791 101.503651 
L 285.688945 100.421235 
L 286.116007 102.076585 
L 286.53917 105.880443 
L 286.958502 108.081332 
L 287.785952 106.208393 
L 288.194201 105.478437 
L 288.598884 105.179187 
L 289.000064 106.672917 
L 289.79215 113.224211 
L 290.183173 109.961908 
L 290.955457 102.24979 
L 291.336825 100.925857 
L 291.71508 102.054159 
L 292.46245 109.720421 
L 292.831663 110.191908 
L 293.197956 109.060278 
L 293.561378 113.378239 
L 293.561378 113.378239 
" style="fill:none;stroke:#9467bd;stroke-linecap:square;stroke-width:1.5;"/>
   </g>
   <g id="line2d_45">
    <path clip-path="url(#pb6cc520b56)" d="M -1 45.981177 
L 69.465428 45.979121 
L 101.583058 50.895266 
L 133.700688 63.413367 
L 144.040256 65.727078 
L 152.488298 68.706893 
L 159.631015 70.983152 
L 165.818319 72.788956 
L 171.275907 74.525604 
L 176.157886 75.639687 
L 200.745048 82.621043 
L 203.393537 83.230499 
L 205.898793 84.231995 
L 210.536255 87.137257 
L 212.691804 87.730672 
L 216.723558 87.220847 
L 218.615084 87.37534 
L 220.432413 88.13542 
L 222.181147 89.52344 
L 223.866276 90.515072 
L 225.492265 90.531466 
L 227.063126 90.673373 
L 230.053579 92.469774 
L 234.205843 93.414591 
L 235.511168 93.080225 
L 236.780725 92.258869 
L 238.016424 91.783794 
L 239.220022 92.087802 
L 240.393147 93.113197 
L 241.537302 94.400141 
L 242.653885 95.089141 
L 243.744193 94.577642 
L 244.809434 93.764478 
L 245.850735 93.823212 
L 246.869149 94.812496 
L 249.796603 98.370057 
L 250.732714 99.144156 
L 252.550043 99.792302 
L 253.432659 99.628434 
L 255.149002 97.392981 
L 255.983906 97.377578 
L 256.804033 98.02343 
L 257.609896 98.355131 
L 258.401982 98.241231 
L 259.180756 98.624661 
L 259.946657 100.170692 
L 260.700104 102.057435 
L 261.441495 101.843579 
L 262.17121 100.144496 
L 262.889611 99.182302 
L 264.293838 98.519097 
L 264.980309 99.073439 
L 265.656758 100.189464 
L 266.323474 99.48508 
L 266.980732 97.812027 
L 267.628798 97.440845 
L 268.267925 97.987428 
L 268.898355 98.234805 
L 269.520324 98.625127 
L 270.134054 100.066348 
L 271.337653 104.503608 
L 271.927927 103.109101 
L 272.510777 100.496537 
L 273.086386 100.157108 
L 273.654933 102.054719 
L 274.216587 102.664989 
L 274.771516 100.623707 
L 275.319876 99.361374 
L 275.861823 99.769578 
L 276.397505 101.311468 
L 277.45064 105.905644 
L 277.968366 106.97633 
L 278.986779 105.296877 
L 279.487713 104.858189 
L 279.983289 104.138325 
L 280.958819 101.559849 
L 281.438989 101.027833 
L 281.914233 101.740349 
L 282.384653 103.619189 
L 283.311403 110.045426 
L 283.767918 110.567086 
L 284.21998 107.603809 
L 284.667674 105.71954 
L 285.111083 105.277985 
L 285.55029 105.493678 
L 285.985372 106.064561 
L 286.416407 105.870853 
L 287.266632 102.629088 
L 287.685965 102.485926 
L 288.101537 103.180887 
L 288.513414 103.265987 
L 288.921663 102.797302 
L 289.326347 103.182163 
L 289.727526 104.448612 
L 290.125262 104.798903 
L 290.910636 102.636705 
L 291.298387 102.442862 
L 292.064287 104.229404 
L 292.442542 102.945925 
L 292.817734 101.083218 
L 293.189912 101.606877 
L 293.559125 104.714268 
L 293.925419 106.824927 
L 294.28884 111.30143 
L 294.28884 111.30143 
" style="fill:none;stroke:#8c564b;stroke-linecap:square;stroke-width:1.5;"/>
   </g>
   <g id="line2d_46">
    <path clip-path="url(#pb6cc520b56)" d="M -1 43.959293 
L 68.280824 43.957262 
L 100.398454 48.819911 
L 132.516085 61.255426 
L 142.855652 63.751879 
L 151.303694 66.898524 
L 158.446411 69.265094 
L 170.091303 72.613499 
L 174.973282 73.568738 
L 179.38957 74.77631 
L 183.421324 76.034194 
L 187.130179 77.03348 
L 193.760892 79.113268 
L 196.751345 80.20852 
L 199.560444 81.374026 
L 202.208934 82.150329 
L 207.090913 83.091516 
L 211.5072 84.571165 
L 213.566915 85.268988 
L 215.538955 85.715746 
L 217.43048 85.722606 
L 219.247809 85.922018 
L 222.681672 87.548571 
L 227.39787 88.773879 
L 228.868976 89.466378 
L 231.678075 91.344564 
L 233.02124 91.505212 
L 234.326564 91.225992 
L 235.596121 91.562274 
L 236.83182 92.710098 
L 238.035419 93.627047 
L 239.208543 93.483054 
L 240.352699 93.195291 
L 242.559589 94.040261 
L 243.62483 93.952955 
L 244.666132 94.311779 
L 245.684545 95.493558 
L 246.681055 96.164659 
L 247.656585 95.570406 
L 248.611999 94.591102 
L 249.548111 93.928667 
L 250.465684 94.29527 
L 251.36544 95.993403 
L 252.248056 97.296841 
L 253.964398 95.468791 
L 254.799303 95.822969 
L 257.217379 98.464811 
L 257.996152 98.859314 
L 258.762053 98.208197 
L 259.5155 97.413365 
L 261.705007 96.514543 
L 262.41244 96.072164 
L 263.109234 96.196908 
L 263.795705 97.393675 
L 264.472154 98.835231 
L 265.13887 98.570909 
L 265.796129 97.610116 
L 266.444194 97.852044 
L 267.083321 99.280474 
L 268.33572 102.465244 
L 268.94945 103.364137 
L 269.555157 102.974555 
L 270.153049 101.600088 
L 270.743324 100.82162 
L 271.326173 101.578898 
L 271.901783 103.121879 
L 272.470329 103.146253 
L 273.586912 100.319504 
L 274.135273 99.599861 
L 274.67722 99.584163 
L 275.212901 100.357042 
L 276.783762 103.706969 
L 277.295766 102.900115 
L 277.802175 101.233942 
L 278.303109 100.475701 
L 278.798686 100.508314 
L 279.289018 100.707533 
L 279.774215 101.383779 
L 280.254385 101.655874 
L 281.200049 97.308517 
L 281.665741 96.508043 
L 282.126799 97.09919 
L 282.583314 97.905874 
L 283.48307 98.283523 
L 284.365686 99.75855 
L 284.800769 99.786684 
L 285.231804 99.147849 
L 285.658866 99.348902 
L 286.501361 103.71427 
L 286.916933 103.818857 
L 288.141743 100.667973 
L 288.542922 99.824918 
L 288.940658 99.806308 
L 289.335009 99.901463 
L 289.726032 99.648827 
L 290.113783 100.078133 
L 290.879684 102.952716 
L 291.257938 102.795178 
L 292.005309 101.918587 
L 292.374521 102.029562 
L 292.740815 103.63037 
L 293.104236 109.84143 
L 293.104236 109.84143 
" style="fill:none;stroke:#e377c2;stroke-linecap:square;stroke-width:1.5;"/>
   </g>
   <g id="line2d_47">
    <path clip-path="url(#pb6cc520b56)" d="M -1 41.898567 
L 69.485398 41.896507 
L 101.603029 46.793616 
L 133.720659 59.290503 
L 144.060227 61.663933 
L 152.508268 64.571968 
L 159.650986 66.600863 
L 165.838289 68.221139 
L 171.295878 69.983825 
L 180.594144 72.362742 
L 188.334753 74.899031 
L 191.768616 76.288783 
L 197.95592 78.403539 
L 200.765019 79.096489 
L 205.918764 79.979811 
L 208.295487 80.50071 
L 210.556226 81.32799 
L 212.711775 82.379861 
L 214.771489 82.803271 
L 216.743529 82.69109 
L 218.635055 82.997543 
L 222.201118 85.148635 
L 225.512236 85.683487 
L 227.083097 86.387931 
L 230.07355 87.979868 
L 231.499384 88.485565 
L 235.531139 89.424102 
L 236.800696 89.152317 
L 238.036394 88.434089 
L 239.239993 88.348667 
L 240.413118 89.111497 
L 241.557273 89.669627 
L 243.764164 89.378647 
L 244.829405 89.986873 
L 246.88912 92.437988 
L 247.88563 93.2545 
L 250.752685 94.377129 
L 251.670259 94.903029 
L 252.570014 94.88111 
L 253.45263 94.201353 
L 254.318748 93.864723 
L 256.003877 94.700949 
L 257.629867 93.620846 
L 258.421953 94.326982 
L 259.200727 95.905842 
L 259.966628 96.34998 
L 260.720075 95.676915 
L 261.461465 95.434612 
L 262.19118 94.999141 
L 262.909582 94.19307 
L 263.617014 94.269154 
L 265.00028 96.016318 
L 265.676729 96.414433 
L 267.000703 96.487447 
L 267.648769 97.02545 
L 268.287895 97.79664 
L 268.918326 97.707143 
L 269.540295 96.696897 
L 270.154025 95.333877 
L 270.759732 94.614549 
L 271.357623 95.506174 
L 271.947898 97.426183 
L 272.530748 97.795722 
L 273.106357 96.999351 
L 273.674904 97.553444 
L 274.236558 99.376081 
L 275.881794 103.183438 
L 276.417476 101.638325 
L 276.947035 98.828806 
L 277.470611 97.872599 
L 277.988336 98.224594 
L 278.500341 98.24005 
L 279.00675 98.063746 
L 279.507684 98.456226 
L 280.493592 99.980083 
L 280.97879 99.999977 
L 281.458959 99.461626 
L 281.934204 99.632831 
L 282.404624 100.007143 
L 282.870316 99.440587 
L 283.331374 99.314956 
L 283.787889 100.208281 
L 284.239951 100.31816 
L 284.687644 99.583112 
L 285.570261 99.065096 
L 286.436378 97.51321 
L 286.863441 97.454958 
L 287.286603 97.890411 
L 287.705936 98.864216 
L 288.121507 100.179669 
L 288.533385 100.856835 
L 288.941634 100.05732 
L 289.346317 98.780312 
L 289.747497 98.488376 
L 290.539584 100.383942 
L 290.930607 99.485265 
L 291.318357 98.154226 
L 291.70289 98.346918 
L 292.084258 100.108622 
L 292.462513 101.119622 
L 292.837705 100.387608 
L 293.209883 100.530057 
L 293.579096 101.593466 
L 293.94539 101.157762 
L 294.308811 105.13437 
L 294.308811 105.13437 
" style="fill:none;stroke:#7f7f7f;stroke-linecap:square;stroke-width:1.5;"/>
   </g>
   <g id="patch_3">
    <path d="M 56.867188 171.6555 
L 56.867188 35.7555 
" style="fill:none;stroke:#000000;stroke-linecap:square;stroke-linejoin:miter;stroke-width:0.8;"/>
   </g>
   <g id="patch_4">
    <path d="M 307.967188 171.6555 
L 307.967188 35.7555 
" style="fill:none;stroke:#000000;stroke-linecap:square;stroke-linejoin:miter;stroke-width:0.8;"/>
   </g>
   <g id="patch_5">
    <path d="M 56.867188 171.6555 
L 307.967188 171.6555 
" style="fill:none;stroke:#000000;stroke-linecap:square;stroke-linejoin:miter;stroke-width:0.8;"/>
   </g>
   <g id="patch_6">
    <path d="M 56.867188 35.7555 
L 307.967188 35.7555 
" style="fill:none;stroke:#000000;stroke-linecap:square;stroke-linejoin:miter;stroke-width:0.8;"/>
   </g>
   <g id="text_14">
    <!-- Power Spectral Density -->
    <g transform="translate(112.884688 16.318125)scale(0.12 -0.12)">
     <use xlink:href="#DejaVuSans-80"/>
     <use x="56.677734" xlink:href="#DejaVuSans-111"/>
     <use x="117.859375" xlink:href="#DejaVuSans-119"/>
     <use x="199.646484" xlink:href="#DejaVuSans-101"/>
     <use x="261.169922" xlink:href="#DejaVuSans-114"/>
     <use x="302.283203" xlink:href="#DejaVuSans-32"/>
     <use x="334.070312" xlink:href="#DejaVuSans-83"/>
     <use x="397.546875" xlink:href="#DejaVuSans-112"/>
     <use x="461.023438" xlink:href="#DejaVuSans-101"/>
     <use x="522.546875" xlink:href="#DejaVuSans-99"/>
     <use x="577.527344" xlink:href="#DejaVuSans-116"/>
     <use x="616.736328" xlink:href="#DejaVuSans-114"/>
     <use x="657.849609" xlink:href="#DejaVuSans-97"/>
     <use x="719.128906" xlink:href="#DejaVuSans-108"/>
     <use x="746.912109" xlink:href="#DejaVuSans-32"/>
     <use x="778.699219" xlink:href="#DejaVuSans-68"/>
     <use x="855.701172" xlink:href="#DejaVuSans-101"/>
     <use x="917.224609" xlink:href="#DejaVuSans-110"/>
     <use x="980.603516" xlink:href="#DejaVuSans-115"/>
     <use x="1032.703125" xlink:href="#DejaVuSans-105"/>
     <use x="1060.486328" xlink:href="#DejaVuSans-116"/>
     <use x="1099.695312" xlink:href="#DejaVuSans-121"/>
    </g>
    <!-- (Tech B, Room Temp) -->
    <g transform="translate(119.477188 29.7555)scale(0.12 -0.12)">
     <defs>
      <path d="M -0.296875 72.90625 
L 61.375 72.90625 
L 61.375 64.59375 
L 35.5 64.59375 
L 35.5 0 
L 25.59375 0 
L 25.59375 64.59375 
L -0.296875 64.59375 
z
" id="DejaVuSans-84"/>
      <path d="M 54.890625 33.015625 
L 54.890625 0 
L 45.90625 0 
L 45.90625 32.71875 
Q 45.90625 40.484375 42.875 44.328125 
Q 39.84375 48.1875 33.796875 48.1875 
Q 26.515625 48.1875 22.3125 43.546875 
Q 18.109375 38.921875 18.109375 30.90625 
L 18.109375 0 
L 9.078125 0 
L 9.078125 75.984375 
L 18.109375 75.984375 
L 18.109375 46.1875 
Q 21.34375 51.125 25.703125 53.5625 
Q 30.078125 56 35.796875 56 
Q 45.21875 56 50.046875 50.171875 
Q 54.890625 44.34375 54.890625 33.015625 
z
" id="DejaVuSans-104"/>
      <path d="M 11.71875 12.40625 
L 22.015625 12.40625 
L 22.015625 4 
L 14.015625 -11.625 
L 7.71875 -11.625 
L 11.71875 4 
z
" id="DejaVuSans-44"/>
      <path d="M 44.390625 34.1875 
Q 47.5625 33.109375 50.5625 29.59375 
Q 53.5625 26.078125 56.59375 19.921875 
L 66.609375 0 
L 56 0 
L 46.6875 18.703125 
Q 43.0625 26.03125 39.671875 28.421875 
Q 36.28125 30.8125 30.421875 30.8125 
L 19.671875 30.8125 
L 19.671875 0 
L 9.8125 0 
L 9.8125 72.90625 
L 32.078125 72.90625 
Q 44.578125 72.90625 50.734375 67.671875 
Q 56.890625 62.453125 56.890625 51.90625 
Q 56.890625 45.015625 53.6875 40.46875 
Q 50.484375 35.9375 44.390625 34.1875 
z
M 19.671875 64.796875 
L 19.671875 38.921875 
L 32.078125 38.921875 
Q 39.203125 38.921875 42.84375 42.21875 
Q 46.484375 45.515625 46.484375 51.90625 
Q 46.484375 58.296875 42.84375 61.546875 
Q 39.203125 64.796875 32.078125 64.796875 
z
" id="DejaVuSans-82"/>
      <path d="M 52 44.1875 
Q 55.375 50.25 60.0625 53.125 
Q 64.75 56 71.09375 56 
Q 79.640625 56 84.28125 50.015625 
Q 88.921875 44.046875 88.921875 33.015625 
L 88.921875 0 
L 79.890625 0 
L 79.890625 32.71875 
Q 79.890625 40.578125 77.09375 44.375 
Q 74.3125 48.1875 68.609375 48.1875 
Q 61.625 48.1875 57.5625 43.546875 
Q 53.515625 38.921875 53.515625 30.90625 
L 53.515625 0 
L 44.484375 0 
L 44.484375 32.71875 
Q 44.484375 40.625 41.703125 44.40625 
Q 38.921875 48.1875 33.109375 48.1875 
Q 26.21875 48.1875 22.15625 43.53125 
Q 18.109375 38.875 18.109375 30.90625 
L 18.109375 0 
L 9.078125 0 
L 9.078125 54.6875 
L 18.109375 54.6875 
L 18.109375 46.1875 
Q 21.1875 51.21875 25.484375 53.609375 
Q 29.78125 56 35.6875 56 
Q 41.65625 56 45.828125 52.96875 
Q 50 49.953125 52 44.1875 
z
" id="DejaVuSans-109"/>
     </defs>
     <use xlink:href="#DejaVuSans-40"/>
     <use x="39.013672" xlink:href="#DejaVuSans-84"/>
     <use x="83.097656" xlink:href="#DejaVuSans-101"/>
     <use x="144.621094" xlink:href="#DejaVuSans-99"/>
     <use x="199.601562" xlink:href="#DejaVuSans-104"/>
     <use x="262.980469" xlink:href="#DejaVuSans-32"/>
     <use x="294.767578" xlink:href="#DejaVuSans-66"/>
     <use x="363.371094" xlink:href="#DejaVuSans-44"/>
     <use x="395.158203" xlink:href="#DejaVuSans-32"/>
     <use x="426.945312" xlink:href="#DejaVuSans-82"/>
     <use x="491.927734" xlink:href="#DejaVuSans-111"/>
     <use x="553.109375" xlink:href="#DejaVuSans-111"/>
     <use x="614.291016" xlink:href="#DejaVuSans-109"/>
     <use x="711.703125" xlink:href="#DejaVuSans-32"/>
     <use x="743.490234" xlink:href="#DejaVuSans-84"/>
     <use x="787.574219" xlink:href="#DejaVuSans-101"/>
     <use x="849.097656" xlink:href="#DejaVuSans-109"/>
     <use x="946.509766" xlink:href="#DejaVuSans-112"/>
     <use x="1009.986328" xlink:href="#DejaVuSans-41"/>
    </g>
   </g>
  </g>
 </g>
 <defs>
  <clipPath id="pb6cc520b56">
   <rect height="135.9" width="251.1" x="56.867188" y="35.7555"/>
  </clipPath>
 </defs>
</svg>
